<svg width="22" height="22" viewBox="0 0 22 22" fill="none" xmlns="http://www.w3.org/2000/svg">
<path d="M2.75 8.80005C2.76178 8.24023 2.80707 7.12916 2.89223 6.77152C3.32709 4.76017 4.80378 3.48221 6.91464 3.30005H15.0863C17.179 3.49174 18.6738 4.77829 19.1087 6.77152C19.1929 7.11963 19.2382 8.23927 19.25 8.80005H2.75Z" fill="white"/>
<path d="M14.713 16.4249C14.2964 16.4162 13.9613 16.0882 13.9613 15.6911C13.9522 15.294 14.2873 14.9669 14.7039 14.9583H14.713C15.1386 14.9583 15.4827 15.2863 15.4827 15.6911C15.4827 16.0968 15.1386 16.4249 14.713 16.4249ZM11.0181 13.2482C10.6015 13.2663 10.2574 12.9547 10.2393 12.5585C10.2393 12.1614 10.5653 11.8334 10.9819 11.8153C11.3894 11.8153 11.7245 12.1183 11.7335 12.5058C11.7516 12.9038 11.4256 13.2318 11.0181 13.2482ZM11.0181 16.3817C10.6015 16.3998 10.2574 16.0882 10.2393 15.6911C10.2393 15.294 10.5653 14.9669 10.9819 14.9488C11.3894 14.9488 11.7245 15.2517 11.7335 15.6402C11.7516 16.0373 11.4256 16.3653 11.0181 16.3817ZM7.2961 13.2482C6.87953 13.2663 6.5354 12.9547 6.51729 12.5585C6.51729 12.1614 6.8433 11.8334 7.25988 11.8153C7.6674 11.8153 8.00247 12.1183 8.01153 12.5058C8.02964 12.9038 7.70362 13.2318 7.2961 13.2482ZM7.28705 16.3817C6.87047 16.3998 6.52634 16.0882 6.50823 15.6911C6.50823 15.294 6.83425 14.9669 7.25082 14.9488C7.65834 14.9488 7.99341 15.2517 8.00247 15.6402C8.02058 16.0373 7.69457 16.3653 7.28705 16.3817ZM13.9704 12.5499C13.9704 12.1528 14.2964 11.8334 14.713 11.8248C15.1205 11.8248 15.4465 12.1347 15.4646 12.5153C15.4737 12.9124 15.1476 13.2404 14.7401 13.2482C14.3235 13.2568 13.9794 12.9547 13.9704 12.5585V12.5499ZM2.75 8.80005V15.3717C2.75 18.0995 4.57931 19.8 7.45005 19.8H14.5409C17.4388 19.8 19.25 18.134 19.25 15.4244V8.80005H2.75Z" fill="#2D99FF"/>
<path opacity="0.4" d="M2.75 8.80005C2.76178 8.24023 2.80707 7.12916 2.89223 6.77152C3.32709 4.76017 4.80378 3.48221 6.91464 3.30005H15.0863C17.179 3.49174 18.6738 4.77829 19.1087 6.77152C19.1929 7.11963 19.2382 8.23927 19.25 8.80005H2.75Z" fill="#2D99FF"/>
<path d="M7.59947 6.23915C7.982 6.23915 8.26889 5.94963 8.26889 5.56155V2.87843C8.26889 2.49035 7.982 2.19995 7.59947 2.19995C7.21695 2.19995 6.93005 2.49035 6.93005 2.87843V5.56155C6.93005 5.94963 7.21695 6.23915 7.59947 6.23915Z" fill="#2D99FF"/>
<path d="M14.3974 6.23915C14.7713 6.23915 15.0669 5.94963 15.0669 5.56155V2.87843C15.0669 2.49035 14.7713 2.19995 14.3974 2.19995C14.0149 2.19995 13.728 2.49035 13.728 2.87843V5.56155C13.728 5.94963 14.0149 6.23915 14.3974 6.23915Z" fill="#2D99FF"/>
</svg>
