<svg width="18" height="14" viewBox="0 0 18 14" fill="none" xmlns="http://www.w3.org/2000/svg">
<path d="M0.88479 0.200035L0.974401 0.207276L3.07157 0.52383C3.37053 0.577468 3.59036 0.822797 3.61674 1.12176L3.78381 3.09143C3.81019 3.37369 4.03881 3.58472 4.32019 3.58472H16.1953C16.7317 3.58472 17.0834 3.76938 17.4352 4.17387C17.7869 4.57835 17.8484 5.1587 17.7693 5.68541L16.934 11.4537C16.7757 12.5625 15.826 13.3794 14.7093 13.3794H5.11597C3.94648 13.3794 2.97924 12.4825 2.88251 11.3227L2.07354 1.73728L0.745779 1.50866C0.394053 1.44711 0.147845 1.10418 0.209397 0.752451C0.270949 0.391932 0.613882 0.154517 0.974401 0.207276L0.88479 0.200035ZM13.3024 6.83731H10.8667C10.4974 6.83731 10.2072 7.12748 10.2072 7.4968C10.2072 7.85731 10.4974 8.15628 10.8667 8.15628H13.3024C13.6717 8.15628 13.9619 7.85731 13.9619 7.4968C13.9619 7.12748 13.6717 6.83731 13.3024 6.83731Z" fill="#1A1926"/>
</svg>
