<svg width="22" height="22" viewBox="0 0 22 22" fill="none" xmlns="http://www.w3.org/2000/svg">
<path fill-rule="evenodd" clip-rule="evenodd" d="M2.19995 11.0132C2.19995 6.37742 5.90475 2.19995 11.0176 2.19995C16.0159 2.19995 19.8 6.2981 19.8 10.9867C19.8 16.4245 15.3648 19.8 11 19.8C9.55675 19.8 7.95603 19.4122 6.67123 18.6542C6.22155 18.381 5.84315 18.1783 5.35915 18.337L3.58155 18.8658C3.13275 19.0068 2.72795 18.6542 2.85995 18.1783L3.44955 16.2042C3.54635 15.9309 3.52875 15.6401 3.38795 15.411C2.63115 14.0185 2.19995 12.4938 2.19995 11.0132Z" fill="white"/>
<path opacity="0.25" d="M11.0176 2.19995C5.90475 2.19995 2.19995 6.37742 2.19995 11.0132C2.19995 12.4938 2.63115 14.0185 3.38795 15.411C3.52875 15.6401 3.54635 15.9309 3.44955 16.2042L2.85995 18.1783C2.72795 18.6542 3.13275 19.0068 3.58155 18.8657L5.35915 18.337C5.84315 18.1783 6.22155 18.381 6.67123 18.6542C7.95603 19.4122 9.55675 19.8 11 19.8C15.3648 19.8 19.7999 16.4245 19.7999 10.9867C19.7999 6.2981 16.016 2.19995 11.0176 2.19995Z" fill="#1A1926"/>
<path d="M8.52456 9.62514C9.287 9.62514 9.8991 10.2382 9.8991 11.0017C9.8991 11.7546 9.287 12.3676 8.52456 12.3783C7.77286 12.3783 7.15002 11.7546 7.15002 11.0017C7.15002 10.2382 7.76212 9.62514 8.52456 9.62514ZM13.4755 9.62514C14.2379 9.62514 14.85 10.2382 14.85 11.0017C14.85 11.7546 14.2379 12.3783 13.4755 12.3783C12.713 12.3676 12.1009 11.7546 12.1009 10.991C12.1009 10.2382 12.7238 9.61438 13.4755 9.62514Z" fill="#1A1926"/>
</svg>
