<svg width="18" height="18" viewBox="0 0 18 18" fill="none" xmlns="http://www.w3.org/2000/svg">
<path d="M5.21355 10.0897C6.44755 10.0897 7.44745 11.098 7.44745 12.3424V15.3472C7.44745 16.5908 6.44755 17.6 5.21355 17.6H2.2339C0.999905 17.6 0 16.5908 0 15.3472V12.3424C0 11.098 0.999905 10.0897 2.2339 10.0897H5.21355ZM15.3661 10.0897C16.6001 10.0897 17.6 11.098 17.6 12.3424V15.3472C17.6 16.5908 16.6001 17.6 15.3661 17.6H12.3864C11.1525 17.6 10.1525 16.5908 10.1525 15.3472V12.3424C10.1525 11.098 11.1525 10.0897 12.3864 10.0897H15.3661ZM5.21355 0C6.44755 0 7.44745 1.00835 7.44745 2.25277V5.25758C7.44745 6.502 6.44755 7.51035 5.21355 7.51035H2.2339C0.999905 7.51035 0 6.502 0 5.25758V2.25277C0 1.00835 0.999905 0 2.2339 0H5.21355Z" fill="black"/>
<path opacity="0.4" d="M12.2339 0H15.2136C16.4475 0 17.4475 1.00835 17.4475 2.25277V5.25758C17.4475 6.502 16.4475 7.51035 15.2136 7.51035H12.2339C10.9999 7.51035 10 6.502 10 5.25758V2.25277C10 1.00835 10.9999 0 12.2339 0Z" fill="#6B6B6B"/>
</svg>
