<svg width="22" height="22" viewBox="0 0 22 22" fill="none" xmlns="http://www.w3.org/2000/svg">
<path fill-rule="evenodd" clip-rule="evenodd" d="M16.9984 5.13135C16.4509 4.96247 15.8717 4.89606 15.2904 4.94101H12.7083C12.7081 4.94102 12.708 4.94102 12.7079 4.94102H12.6803C12.0454 4.93693 11.4446 4.65107 11.0416 4.16016L10.1888 2.98106C9.78676 2.47857 9.17421 2.19022 8.52998 2.2002H6.69905C3.41276 2.2002 2.19995 4.12892 2.19995 7.40853V9.91897C2.19995 9.92028 2.19995 9.92158 2.19995 9.92289V10.9538V14.5456C2.19995 14.9353 2.23118 15.3244 2.29385 15.7091C2.3924 16.3889 2.62653 17.042 2.9824 17.63C3.14451 17.9137 3.34167 18.1761 3.56924 18.4108C4.61521 19.3674 6.00199 19.8653 7.41889 19.7929H14.5705C15.9851 19.8658 17.3697 19.3677 18.4123 18.4108C18.6426 18.1765 18.8424 17.9142 19.007 17.63C19.365 17.0416 19.6042 16.3891 19.7112 15.7091C19.7673 15.3237 19.7961 14.9349 19.7972 14.5456V10.9541C19.7972 10.9539 19.7972 10.9538 19.7972 10.9536V9.92289C19.7972 9.92277 19.7972 9.92264 19.7972 9.92252C19.8079 9.5699 19.7937 9.21763 19.755 8.86828C19.5692 6.84424 18.7563 5.58473 16.9984 5.13135ZM6.57384 12.6637H15.5016C15.7183 12.6662 15.9212 12.7703 16.0493 12.9448C16.1606 13.0747 16.2168 13.2428 16.2058 13.4133C16.1997 13.6074 16.116 13.7909 15.9734 13.9229C15.8308 14.055 15.6412 14.1245 15.4468 14.1161H6.57384C6.17196 14.1161 5.84617 13.791 5.84617 13.3899C5.84617 12.9888 6.17196 12.6637 6.57384 12.6637Z" fill="white"/>
<path opacity="0.4" d="M15.2982 4.94101H12.7083C12.0631 4.94528 11.4505 4.65828 11.0416 4.16016L10.1888 2.98106C9.78676 2.47857 9.17421 2.19022 8.52998 2.2002H6.69905C3.41276 2.2002 2.19995 4.12892 2.19995 7.40853V10.9536C2.19587 11.3435 19.7961 11.343 19.7972 10.9536V9.92289C19.8129 6.64329 18.6314 4.94101 15.2982 4.94101Z" fill="#1A1926"/>
<path d="M15.2903 4.94106C16.4385 4.85225 17.5782 5.19791 18.4827 5.90932C18.5869 5.99765 18.6837 6.09428 18.7722 6.19824C19.0538 6.52743 19.2713 6.9061 19.4138 7.31487C19.6942 8.15499 19.824 9.03785 19.7972 9.92293V14.5456C19.7961 14.935 19.7673 15.3238 19.7112 15.7091C19.6042 16.3891 19.365 17.0416 19.007 17.63C18.8424 17.9142 18.6426 18.1766 18.4123 18.4109C17.3697 19.3678 15.9851 19.8659 14.5705 19.793H7.41889C6.00199 19.8653 4.61521 19.3675 3.56924 18.4109C3.34167 18.1761 3.14451 17.9138 2.9824 17.63C2.62653 17.0421 2.3924 16.3889 2.29385 15.7091C2.23118 15.3244 2.19995 14.9353 2.19995 14.5456V9.92293C2.19995 9.53686 2.22069 9.15107 2.26255 8.76726C2.28602 8.58766 2.34079 8.41588 2.34079 8.24409C2.42022 7.78092 2.56511 7.33135 2.77114 6.90882C3.38145 5.60479 4.63337 4.94106 6.68339 4.94106H15.2903ZM15.5016 12.6637H6.57384C6.17196 12.6637 5.84617 12.9889 5.84617 13.3899C5.84617 13.791 6.17196 14.1161 6.57384 14.1161H15.4468C15.6412 14.1246 15.8308 14.055 15.9734 13.923C16.116 13.7909 16.1997 13.6074 16.2058 13.4134C16.2168 13.2428 16.1606 13.0747 16.0493 12.9449C15.9212 12.7703 15.7183 12.6662 15.5016 12.6637Z" fill="#1A1926"/>
</svg>
