<svg width="20" height="20" viewBox="0 0 20 20" fill="none" xmlns="http://www.w3.org/2000/svg">
<path d="M13.4663 18H6.53295C3.82152 18 2 16.0983 2 13.2674V6.73338C2 3.90249 3.82152 2 6.53295 2H13.4671C16.1785 2 18 3.90249 18 6.73338V13.2674C18 16.0983 16.1785 18 13.4663 18Z" fill="white"/>
<path opacity="0.25" d="M13.4663 18H6.53295C3.82152 18 2 16.0983 2 13.2674V6.73338C2 3.90249 3.82152 2 6.53295 2H13.4671C16.1785 2 18 3.90249 18 6.73338V13.2674C18 16.0983 16.1785 18 13.4663 18Z" fill="#1A1926"/>
<path d="M12.7427 10.8718C12.9203 10.639 13.5795 9.911 14.4315 10.4294C14.9747 10.7558 15.4315 11.1974 15.9203 11.6702C16.1067 11.851 16.2403 12.0574 16.3283 12.2774C16.5947 12.943 16.4563 13.743 16.1715 14.4022C15.8339 15.187 15.1875 15.7798 14.3731 16.039C14.0115 16.155 13.6323 16.2046 13.2539 16.2046H6.54911C5.88191 16.2046 5.29151 16.0494 4.80751 15.7582C4.50431 15.5758 4.45071 15.1558 4.67551 14.8822C5.05151 14.4262 5.42271 13.9686 5.79711 13.507C6.51071 12.6238 6.99151 12.3678 7.52591 12.5926C7.74271 12.6854 7.96031 12.8254 8.18431 12.9726C8.78111 13.3678 9.61071 13.9102 10.7035 13.3214C11.4555 12.9102 11.8899 12.2046 12.2691 11.5934C12.4243 11.3446 12.5715 11.0966 12.7427 10.8718ZM7.40799 5.35132C8.50399 5.35132 9.39599 6.24412 9.39599 7.34012C9.39599 8.43612 8.50399 9.32812 7.40799 9.32812C6.31119 9.32812 5.41999 8.43612 5.41999 7.34012C5.41999 6.24412 6.31119 5.35132 7.40799 5.35132Z" fill="#1A1926"/>
</svg>
