<svg width="22" height="22" viewBox="0 0 22 22" fill="none" xmlns="http://www.w3.org/2000/svg">
<path fill-rule="evenodd" clip-rule="evenodd" d="M15.4264 3.30005C17.0773 3.30005 18.5768 4.21701 19.3389 5.65317C19.5096 5.97437 19.4287 6.37477 19.1444 6.60181L12.6104 11.8281C12.1528 12.1977 11.5984 12.3816 11.044 12.3816H11.0352H11.0264C10.472 12.3816 9.91763 12.1977 9.46003 11.8281L2.92603 6.60181C2.64179 6.37477 2.56083 5.97437 2.73155 5.65317C3.49363 4.21701 4.99315 3.30005 6.64403 3.30005H15.4264ZM15.3736 19.1406C17.8288 19.1318 19.8 17.143 19.8 14.6878C19.8 14.6878 19.8 10.8475 19.7911 8.90354C19.7903 8.53658 19.3661 8.33066 19.0775 8.56034C17.8494 9.5359 16.1081 10.9292 14.8495 11.9362C13.9329 12.6696 13.2724 13.1982 13.2528 13.2111C12.628 13.7215 11.836 14.004 11.0264 14.004C10.2167 14.004 9.42475 13.7215 8.79995 13.2208C8.75331 13.1812 5.01419 10.1567 2.92331 8.49786C2.63555 8.26906 2.21315 8.47498 2.21227 8.84282C2.20523 10.8017 2.19995 14.6966 2.19995 14.6966V14.7054C2.19995 17.1606 4.19755 19.1406 6.64395 19.1406H15.3648H15.3736Z" fill="white"/>
<path opacity="0.25" d="M19.7999 14.6877C19.7999 17.1429 17.8288 19.1317 15.3736 19.1405H15.3648H6.64395C4.19755 19.1405 2.19995 17.1605 2.19995 14.7053V14.6965C2.19995 14.6965 2.20523 10.8016 2.21227 8.84272C2.21315 8.47488 2.63555 8.26896 2.92331 8.49776C5.01419 10.1566 8.75331 13.1811 8.79995 13.2207C9.42475 13.7214 10.2168 14.0039 11.0264 14.0039C11.836 14.0039 12.628 13.7214 13.2528 13.211C13.2994 13.1802 16.9549 10.2463 19.0775 8.56024C19.3661 8.33056 19.7903 8.53648 19.7911 8.90344C19.7999 10.8474 19.7999 14.6877 19.7999 14.6877Z" fill="#1A1926"/>
<path d="M19.339 5.65317C18.5769 4.21701 17.0774 3.30005 15.4265 3.30005H6.64414C4.99326 3.30005 3.49374 4.21701 2.73166 5.65317C2.56094 5.97437 2.6419 6.37477 2.92614 6.60181L9.46014 11.8281C9.91774 12.1977 10.4721 12.3816 11.0265 12.3816C11.0301 12.3816 11.0327 12.3816 11.0353 12.3816C11.038 12.3816 11.0415 12.3816 11.0441 12.3816C11.5985 12.3816 12.1529 12.1977 12.6105 11.8281L19.1445 6.60181C19.4288 6.37477 19.5097 5.97437 19.339 5.65317Z" fill="#1A1926"/>
</svg>
