<svg width="22" height="22" viewBox="0 0 22 22" fill="none" xmlns="http://www.w3.org/2000/svg">
<path fill-rule="evenodd" clip-rule="evenodd" d="M7.04999 11C7.04999 10.9448 7.09476 10.9 7.14999 10.9C7.20522 10.9 7.24999 10.9448 7.24999 11C7.24999 11.0553 7.20522 11.1 7.14999 11.1C7.09476 11.1 7.04999 11.0553 7.04999 11ZM7.14999 8.90002C5.99019 8.90002 5.04999 9.84023 5.04999 11C5.04999 12.1598 5.99019 13.1 7.14999 13.1C8.30979 13.1 9.24999 12.1598 9.24999 11C9.24999 9.84023 8.30979 8.90002 7.14999 8.90002ZM14.75 11C14.75 10.9448 14.7948 10.9 14.85 10.9C14.9052 10.9 14.95 10.9448 14.95 11C14.95 11.0553 14.9052 11.1 14.85 11.1C14.7948 11.1 14.75 11.0553 14.75 11ZM14.85 8.90002C13.6902 8.90002 12.75 9.84023 12.75 11C12.75 12.1598 13.6902 13.1 14.85 13.1C16.0098 13.1 16.95 12.1598 16.95 11C16.95 9.84023 16.0098 8.90002 14.85 8.90002Z" fill="#1A1926"/>
</svg>
