<svg width="22" height="22" viewBox="0 0 22 22" fill="none" xmlns="http://www.w3.org/2000/svg">
<path fill-rule="evenodd" clip-rule="evenodd" d="M7.53285 2.19995H14.9081C17.6264 2.19995 19.14 3.76635 19.14 6.45035V15.5408C19.14 18.2687 17.6264 19.8 14.9081 19.8H7.53285C4.85765 19.8 3.30005 18.2687 3.30005 15.5408V6.45035C3.30005 3.76635 4.85765 2.19995 7.53285 2.19995Z" fill="white"/>
<path opacity="0.25" d="M14.9081 2.19995H7.53285C4.85765 2.19995 3.30005 3.76635 3.30005 6.45035V15.5408C3.30005 18.2687 4.85765 19.7999 7.53285 19.7999H14.9081C17.6264 19.7999 19.14 18.2687 19.14 15.5408V6.45035C19.14 3.76635 17.6264 2.19995 14.9081 2.19995Z" fill="#1A1926"/>
<path d="M7.77036 14.2912H14.6696C15.0207 14.3264 15.2856 14.6256 15.2856 14.9864C15.2856 15.3375 15.0207 15.6376 14.6696 15.6728H7.77036C7.50636 15.708 7.25116 15.576 7.11036 15.356C6.96956 15.1272 6.96956 14.8368 7.11036 14.6168C7.25116 14.388 7.50636 14.2648 7.77036 14.2912ZM14.6696 10.2775C15.048 10.2775 15.356 10.5864 15.356 10.9648C15.356 11.3432 15.048 11.6512 14.6696 11.6512H7.77036C7.39108 11.6512 7.08396 11.3432 7.08396 10.9648C7.08396 10.5864 7.39108 10.2775 7.77036 10.2775H14.6696ZM10.4007 6.29199C10.78 6.29199 11.088 6.59999 11.088 6.97751C11.088 7.36559 10.78 7.67359 10.4007 7.67359H7.77036C7.39108 7.67359 7.08396 7.36559 7.08396 6.98719C7.08396 6.60879 7.39108 6.30079 7.77036 6.30079V6.29199H10.4007Z" fill="#1A1926"/>
</svg>
