<svg width="22" height="24" viewBox="0 0 22 24" fill="none" xmlns="http://www.w3.org/2000/svg">
<path fill-rule="evenodd" clip-rule="evenodd" d="M16.9022 10.1815C16.9022 11.2867 17.1944 11.9372 17.8372 12.6879C18.3243 13.2409 18.48 13.9517 18.48 14.721C18.48 15.4912 18.2264 16.2206 17.72 16.8135C17.0579 17.5243 16.123 17.9781 15.1688 18.057C13.7852 18.1749 12.4024 18.2741 11.0005 18.2741C9.5976 18.2741 8.21486 18.2147 6.83212 18.057C5.87706 17.9781 4.94212 17.5243 4.28005 16.8135C3.77278 16.2206 3.52002 15.4912 3.52002 14.721C3.52002 13.9517 3.6757 13.2409 4.16285 12.6879C4.82492 11.9372 5.09779 11.2867 5.09779 10.1815V9.80573C5.09779 8.32564 5.46775 7.35782 6.22778 6.41128C7.35776 5.02868 9.16905 4.20001 10.9611 4.20001H11.0389C12.8695 4.20001 14.7394 5.06857 15.8501 6.50966C16.5708 7.43759 16.9022 8.36552 16.9022 9.80573V10.1815ZM9.2072 19.361C9.64712 19.267 12.3278 19.267 12.7677 19.361C13.1438 19.4478 13.5505 19.6499 13.5505 20.093C13.5286 20.5158 13.2811 20.8889 12.9382 21.1256L12.9391 21.1264C12.4957 21.4721 11.9753 21.6919 11.4313 21.7708C11.1304 21.8089 10.8348 21.8106 10.5445 21.7708C9.99958 21.6919 9.4792 21.4721 9.03578 21.1264L9.03665 21.1256C8.69381 20.8889 8.4463 20.5158 8.42443 20.093C8.42443 19.6499 8.83112 19.4478 9.2072 19.361Z" fill="white"/>
<path d="M17.8372 12.6879C17.1943 11.9372 16.9022 11.2867 16.9022 10.1815V9.80573C16.9022 8.36552 16.5708 7.43759 15.8501 6.50966C14.7393 5.06857 12.8695 4.20001 11.0389 4.20001H10.9611C9.16903 4.20001 7.35774 5.02868 6.22776 6.41128C5.46773 7.35782 5.09778 8.32564 5.09778 9.80573V10.1815C5.09778 11.2867 4.8249 11.9372 4.16283 12.6879C3.67568 13.2409 3.52 13.9517 3.52 14.721C3.52 15.4912 3.77276 16.2206 4.28003 16.8135C4.9421 17.5243 5.87705 17.9781 6.83211 18.057C8.21485 18.2147 9.59759 18.2741 11.0004 18.2741C12.4024 18.2741 13.7852 18.1749 15.1688 18.057C16.123 17.9781 17.0579 17.5243 17.72 16.8135C18.2264 16.2206 18.48 15.4912 18.48 14.721C18.48 13.9517 18.3243 13.2409 17.8372 12.6879Z" fill="#1A1926"/>
<path opacity="0.4" d="M12.7677 19.361C12.3277 19.267 9.6471 19.267 9.20717 19.361C8.8311 19.4478 8.42441 19.6499 8.42441 20.0931C8.44627 20.5158 8.69378 20.8889 9.03663 21.1256L9.03575 21.1265C9.47917 21.4721 9.99956 21.6919 10.5444 21.7708C10.8348 21.8107 11.1304 21.8089 11.4313 21.7708C11.9753 21.6919 12.4957 21.4721 12.9391 21.1265L12.9382 21.1256C13.2811 20.8889 13.5286 20.5158 13.5504 20.0931C13.5504 19.6499 13.1437 19.4478 12.7677 19.361Z" fill="#1A1926"/>
<path d="M17 9C19.2091 9 21 7.20914 21 5C21 2.79086 19.2091 1 17 1C14.7909 1 13 2.79086 13 5C13 7.20914 14.7909 9 17 9Z" fill="#FF6640" stroke="#F2F4F7" stroke-width="2"/>
</svg>
