<svg width="22" height="22" viewBox="0 0 22 22" fill="none" xmlns="http://www.w3.org/2000/svg">
<path fill-rule="evenodd" clip-rule="evenodd" d="M5.62217 9.04445C7.51221 9.04445 9.04438 7.51227 9.04438 5.62223C9.04438 3.73219 7.51221 2.20001 5.62217 2.20001C3.73213 2.20001 2.19995 3.73219 2.19995 5.62223C2.19995 7.51227 3.73213 9.04445 5.62217 9.04445ZM5.62217 19.8C7.51221 19.8 9.04438 18.2678 9.04438 16.3778C9.04438 14.4877 7.51221 12.9556 5.62217 12.9556C3.73213 12.9556 2.19995 14.4877 2.19995 16.3778C2.19995 18.2678 3.73213 19.8 5.62217 19.8ZM19.8 5.62223C19.8 7.51227 18.2678 9.04445 16.3777 9.04445C14.4877 9.04445 12.9555 7.51227 12.9555 5.62223C12.9555 3.73219 14.4877 2.20001 16.3777 2.20001C18.2678 2.20001 19.8 3.73219 19.8 5.62223ZM16.3777 19.8C18.2678 19.8 19.8 18.2678 19.8 16.3778C19.8 14.4877 18.2678 12.9556 16.3777 12.9556C14.4877 12.9556 12.9555 14.4877 12.9555 16.3778C12.9555 18.2678 14.4877 19.8 16.3777 19.8Z" fill="#1A1926"/>
</svg>
