<svg width="20" height="20" viewBox="0 0 20 20" fill="none" xmlns="http://www.w3.org/2000/svg">
<path d="M17.5483 2.46571C17.1481 2.0542 16.5559 1.90199 16.0037 2.06305L3.1264 5.80691C2.54376 5.96958 2.13079 6.43424 2.01954 7.02372C1.9059 7.62448 2.30286 8.3879 2.82147 8.7068L6.84792 11.1807C7.26089 11.4352 7.79391 11.3716 8.13565 11.0269L12.7463 6.38753C12.9784 6.14513 13.3626 6.14513 13.5947 6.38753C13.8268 6.62026 13.8268 6.99956 13.5947 7.24115L8.97599 11.8805C8.63345 12.2252 8.56943 12.7599 8.82153 13.1762L11.2817 17.243C11.5699 17.7254 12.0661 18 12.6103 18C12.6743 18 12.7463 18 12.8104 17.9911C13.4346 17.9114 13.9308 17.4838 14.1149 16.8798L17.9325 4.01994C18.1005 3.47233 17.9485 2.87641 17.5483 2.46571Z" fill="#1A1926"/>
<path opacity="0.4" d="M7.96356 15.8048C8.19725 16.0407 8.19725 16.4232 7.96356 16.6592L6.87031 17.7584C6.75346 17.8768 6.5998 17.9356 6.44613 17.9356C6.29247 17.9356 6.13881 17.8768 6.02196 17.7584C5.78746 17.5225 5.78746 17.1408 6.02196 16.9048L7.11441 15.8048C7.3489 15.5696 7.72906 15.5696 7.96356 15.8048ZM7.33634 12.7543C7.57003 12.9902 7.57003 13.3728 7.33634 13.6087L6.24309 14.7079C6.12624 14.8263 5.97258 14.8851 5.81892 14.8851C5.66525 14.8851 5.51159 14.8263 5.39474 14.7079C5.16025 14.472 5.16025 14.0903 5.39474 13.8543L6.48719 12.7543C6.72169 12.5191 7.10184 12.5191 7.33634 12.7543ZM4.32615 11.794C4.55984 12.03 4.55984 12.4125 4.32615 12.6485L3.2329 13.7477C3.11605 13.8661 2.96239 13.9249 2.80872 13.9249C2.65506 13.9249 2.5014 13.8661 2.38455 13.7477C2.15006 13.5117 2.15006 13.13 2.38455 12.8941L3.477 11.794C3.71149 11.5589 4.09165 11.5589 4.32615 11.794Z" fill="#1A1926"/>
</svg>
