<svg width="22" height="22" viewBox="0 0 22 22" fill="none" xmlns="http://www.w3.org/2000/svg">
<path fill-rule="evenodd" clip-rule="evenodd" d="M7.18955 2.19995H14.8192C17.8023 2.19995 19.8 4.29435 19.8 7.40955V14.5992C19.8 17.7055 17.8023 19.8 14.8192 19.8H7.18955C4.20635 19.8 2.19995 17.7055 2.19995 14.5992V7.40955C2.19995 4.29435 4.20635 2.19995 7.18955 2.19995Z" fill="white"/>
<path opacity="0.25" d="M14.8192 2.19995H7.18955C4.20635 2.19995 2.19995 4.29435 2.19995 7.40955V14.5992C2.19995 17.7056 4.20635 19.7999 7.18955 19.7999H14.8192C17.8024 19.7999 19.7999 17.7056 19.7999 14.5992V7.40955C19.7999 4.29435 17.8024 2.19995 14.8192 2.19995Z" fill="#1A1926"/>
<path d="M9.95548 13.8583C9.75836 13.8583 9.56124 13.7835 9.41076 13.633L7.32252 11.5448C7.02156 11.2438 7.02156 10.7563 7.32252 10.4562C7.62348 10.1552 8.11012 10.1544 8.41108 10.4553L9.95548 11.9997L13.5881 8.36708C13.8891 8.06612 14.3757 8.06612 14.6767 8.36708C14.9776 8.66804 14.9776 9.15556 14.6767 9.45652L10.5002 13.633C10.3497 13.7835 10.1526 13.8583 9.95548 13.8583Z" fill="#1A1926"/>
</svg>
