<svg width="16" height="16" viewBox="0 0 16 16" fill="none" xmlns="http://www.w3.org/2000/svg">
<path d="M14.4 7.99998C14.4 11.5353 11.5347 14.4 7.99998 14.4C4.46526 14.4 1.59998 11.5353 1.59998 7.99998C1.59998 4.4659 4.46526 1.59998 7.99998 1.59998C11.5347 1.59998 14.4 4.4659 14.4 7.99998Z" fill="white"/>
<path opacity="0.25" d="M14.4 7.99998C14.4 11.5353 11.5347 14.4 7.99998 14.4C4.46526 14.4 1.59998 11.5353 1.59998 7.99998C1.59998 4.4659 4.46526 1.59998 7.99998 1.59998C11.5347 1.59998 14.4 4.4659 14.4 7.99998Z" fill="#1A1926"/>
<path d="M10.2863 10.4412C10.2024 10.4412 10.1179 10.4194 10.0405 10.374L7.52785 8.87508C7.38321 8.78804 7.29425 8.63124 7.29425 8.46228V5.2322C7.29425 4.96724 7.50929 4.7522 7.77425 4.7522C8.03921 4.7522 8.25425 4.96724 8.25425 5.2322V8.18964L10.5327 9.54836C10.7599 9.68468 10.8347 9.97908 10.6991 10.2069C10.6088 10.3573 10.4495 10.4412 10.2863 10.4412Z" fill="#1A1926"/>
</svg>
